<svg width="24" height="24" viewBox="0 0 24 24" fill="none" xmlns="http://www.w3.org/2000/svg">
<path fill-rule="evenodd" clip-rule="evenodd" d="M12.8698 20.1377L15.774 17.1882L21.2929 22.7071L22.7071 21.2929L2.70711 1.29291L1.29289 2.70712L6.71791 8.13214L3.85825 11.0351C1.38115 13.562 1.38115 17.6127 3.85654 20.1378C6.31029 22.6409 10.4559 22.6008 12.8698 20.1377ZM8.44995 14.3627L10.682 12.0962L11.8149 13.2291L9.551 15.529C9.25337 15.8363 8.7508 15.8377 8.44995 15.5306C8.13291 15.2071 8.13291 14.6863 8.44995 14.3627ZM13.2292 14.6434L10.9821 16.9261C9.9074 18.036 8.10955 18.041 7.02134 16.9303C5.94245 15.8291 5.94245 14.0642 7.02315 12.9612L9.26772 10.682L8.13217 9.54639L5.28475 12.4369C3.57175 14.1843 3.57175 16.9903 5.28475 18.7377C6.94816 20.4346 9.80565 20.4069 11.4431 18.7362L14.3597 15.774L13.2292 14.6434ZM12.0604 7.84618L13.4746 9.26044L14.7681 7.94695L13.3431 6.54361L12.0604 7.84618ZM14.607 10.3928L16.5024 8.46735C17.5172 7.43172 17.5172 5.7685 16.5024 4.73287C15.5342 3.74478 13.821 3.76676 12.872 4.73476L10.9252 6.71104L9.51099 5.29679L11.4455 3.33295C13.169 1.57488 16.1703 1.53637 17.9309 3.33309C19.7077 5.14635 19.7077 8.05387 17.9293 9.86876L16.0212 11.807L14.607 10.3928ZM20.2921 9.74892L17.1521 12.9379L18.5664 14.3522L21.7172 11.1521L20.2921 9.74892Z" fill="#000000"/>
</svg>
